<?xml version="1.0" encoding="UTF-8" standalone="no"?>
<svg
   xmlns:dc="http://purl.org/dc/elements/1.1/"
   xmlns:cc="http://creativecommons.org/ns#"
   xmlns:rdf="http://www.w3.org/1999/02/22-rdf-syntax-ns#"
   xmlns:svg="http://www.w3.org/2000/svg"
   xmlns="http://www.w3.org/2000/svg"
   xmlns:sodipodi="http://sodipodi.sourceforge.net/DTD/sodipodi-0.dtd"
   xmlns:inkscape="http://www.inkscape.org/namespaces/inkscape"
   id="Layer_1"
   data-name="Layer 1"
   viewBox="0 0 128 128"
   version="1.1"
   sodipodi:docname="bash-logo.svg"
   width="128"
   height="128"
   inkscape:version="0.92.5 (2060ec1f9f, 2020-04-08)">
  <metadata
     id="metadata13">
    <rdf:RDF>
      <cc:Work
         rdf:about="">
        <dc:format>image/svg+xml</dc:format>
        <dc:type
           rdf:resource="http://purl.org/dc/dcmitype/StillImage" />
        <dc:title>BASH_logo-transparent-bg-bw</dc:title>
      </cc:Work>
    </rdf:RDF>
  </metadata>
  <sodipodi:namedview
     pagecolor="#ffffff"
     bordercolor="#666666"
     borderopacity="1"
     objecttolerance="10"
     gridtolerance="10"
     guidetolerance="10"
     inkscape:pageopacity="0"
     inkscape:pageshadow="2"
     inkscape:window-width="1920"
     inkscape:window-height="1055"
     id="namedview11"
     showgrid="false"
     borderlayer="false"
     showborder="true"
     fit-margin-top="0"
     fit-margin-left="0"
     fit-margin-right="0"
     fit-margin-bottom="-2.7755576e-17"
     inkscape:zoom="5.5213993"
     inkscape:cx="73.634819"
     inkscape:cy="77.636221"
     inkscape:window-x="1920"
     inkscape:window-y="0"
     inkscape:window-maximized="1"
     inkscape:current-layer="Layer_1" />
  <defs
     id="defs4">
    <style
       id="style2">.cls-1{fill:#1b1b1f;}</style>
  </defs>
  <title
     id="title6">BASH_logo-transparent-bg-bw</title>
  <path
     class="cls-1"
     d="M 119.17243,26.119653 72.955902,2.1268874 a 17.411883,15.228349 0 0 0 -17.750762,0 L 8.9886119,26.119653 A 18.428518,16.117493 0 0 0 2.7198535e-4,40.007235 V 87.992768 A 18.428518,16.117493 0 0 0 8.9079267,101.88034 l 46.2165283,23.99277 a 17.411883,15.228349 0 0 0 17.750761,0 L 119.09174,101.88034 A 18.428518,16.117493 0 0 0 127.9994,87.992768 V 40.007235 A 18.428518,16.117493 0 0 0 119.17243,26.119653 Z M 83.380439,101.04765 v 3.44367 a 1.452335,1.2702052 0 0 1 -0.677756,1.05851 l -2.339873,1.17141 c -0.371152,0.16936 -0.677756,0 -0.677756,-0.45163 v -3.38721 a 7.6005532,6.6474074 0 0 1 -5.325229,0.45162 0.71003045,0.62098922 0 0 1 -0.258193,-0.76212 l 0.839127,-3.119059 a 1.4846091,1.298432 0 0 1 0.467975,-0.677443 0.93594923,0.8185767 0 0 1 0.225919,-0.141134 0.46797462,0.40928835 0 0 1 0.371152,0 6.4548223,5.6453566 0 0 0 4.841117,-0.536309 6.4548223,5.6453566 0 0 0 3.6147,-4.840893 c 0,-1.750061 -1.09732,-2.483957 -3.743797,-2.498071 -3.356507,0 -6.454822,-0.564535 -6.535507,-4.897345 a 14.345843,12.546805 0 0 1 5.42205,-9.597106 v -3.486008 a 1.436198,1.2560918 0 0 1 0.677757,-1.072618 l 2.259188,-1.256091 c 0.371152,-0.169361 0.677756,0 0.677756,0.465742 v 3.486007 a 7.3584974,6.4357065 0 0 1 4.421553,-0.465742 0.71003045,0.62098922 0 0 1 0.290467,0.804464 l -0.790716,3.090832 a 1.5168832,1.3266588 0 0 1 -0.403426,0.62099 0.93594923,0.8185767 0 0 1 -0.225919,0.155247 0.53252284,0.46574192 0 0 1 -0.338878,0 5.8577512,5.1231611 0 0 0 -4.260183,0.606876 5.3575025,4.685646 0 0 0 -3.227411,4.149337 c 0,1.5807 0.952087,2.060555 4.147224,2.117009 4.276319,0 6.115944,1.693606 6.164355,5.447767 a 15.297929,13.379495 0 0 1 -5.615696,10.119298 z m 24.205581,-5.8006 a 0.91981217,0.80446331 0 0 1 -0.35501,0.776236 L 95.547779,102.23318 A 0.33887817,0.29638122 0 0 1 94.99912,101.9368 v -2.639207 a 0.8391269,0.73389635 0 0 1 0.532522,-0.649216 l 11.505718,-6.026418 a 0.33887817,0.29638122 0 0 1 0.54866,0.296381 z m 8.06853,-59.008092 -43.73142,23.625821 c -5.454325,2.822678 -9.472452,5.913511 -9.472452,11.657661 v 47.1105 c 0,3.44367 1.613706,5.64536 4.034264,6.3228 a 14.152198,12.377444 0 0 1 -2.420558,0.2117 14.313568,12.518578 0 0 1 -7.293949,-1.76417 L 10.553906,99.4105 A 15.201106,13.294815 0 0 1 3.227683,87.992768 V 40.007235 a 15.201106,13.294815 0 0 1 7.326223,-11.43185 L 56.770435,4.5826184 a 14.24902,12.462125 0 0 1 14.52335,0 L 117.51031,28.575385 a 15.104284,13.210134 0 0 1 7.10031,9.244273 c -1.50075,-2.850905 -4.95408,-3.641255 -8.97221,-1.5807 z"
     id="path8"
     inkscape:connector-curvature="0"
     style="fill:#293137;stroke-width:1.50913405;fill-opacity:1" />
</svg>
