<?xml version="1.0" encoding="UTF-8" standalone="no"?>
<svg
   xmlns:dc="http://purl.org/dc/elements/1.1/"
   xmlns:cc="http://creativecommons.org/ns#"
   xmlns:rdf="http://www.w3.org/1999/02/22-rdf-syntax-ns#"
   xmlns:svg="http://www.w3.org/2000/svg"
   xmlns="http://www.w3.org/2000/svg"
   xmlns:sodipodi="http://sodipodi.sourceforge.net/DTD/sodipodi-0.dtd"
   xmlns:inkscape="http://www.inkscape.org/namespaces/inkscape"
   height="127.99999"
   width="128"
   viewBox="-74.4 -120.90175 68.778667 116.06567"
   version="1.1"
   id="svg4"
   sodipodi:docname="github-logo.svg"
   inkscape:version="0.92.5 (2060ec1f9f, 2020-04-08)">
  <metadata
     id="metadata10">
    <rdf:RDF>
      <cc:Work
         rdf:about="">
        <dc:format>image/svg+xml</dc:format>
        <dc:type
           rdf:resource="http://purl.org/dc/dcmitype/StillImage" />
      </cc:Work>
    </rdf:RDF>
  </metadata>
  <defs
     id="defs8" />
  <sodipodi:namedview
     pagecolor="#ffffff"
     bordercolor="#666666"
     borderopacity="1"
     objecttolerance="10"
     gridtolerance="10"
     guidetolerance="10"
     inkscape:pageopacity="0"
     inkscape:pageshadow="2"
     inkscape:window-width="1920"
     inkscape:window-height="1055"
     id="namedview6"
     showgrid="false"
     inkscape:zoom="2.7811913"
     inkscape:cx="-63.044523"
     inkscape:cy="19.74482"
     inkscape:window-x="1920"
     inkscape:window-y="0"
     inkscape:window-maximized="1"
     inkscape:current-layer="svg4" />
  <path
     d="m -59.222345,-27.44584 c 0,0.48 -0.53821,0.864 -1.21682,0.864 -0.77221,0.072 -1.31042,-0.312 -1.31042,-0.864 0,-0.48 0.5382,-0.864 1.21681,-0.864 0.70201,-0.072 1.31043,0.312 1.31043,0.864 z m -7.27751,-1.08 c -0.1638,0.48 0.30421,1.032 1.00621,1.176 0.60841,0.24 1.31043,0 1.45083,-0.48 0.1404,-0.48 -0.30422,-1.032 -1.00622,-1.248 -0.60841,-0.168 -1.28702,0.072 -1.45082,0.552 z m 10.34294,-0.408 c -0.67861,0.168 -1.14661,0.624 -1.07641,1.176 0.0702,0.48 0.67861,0.792 1.38062,0.624 0.67861,-0.168 1.14661,-0.624 1.07641,-1.104 -0.0702,-0.456 -0.70201,-0.768 -1.38062,-0.696 z m 15.39742,-91.96791 c -32.45626,0 -57.28401,25.27197 -57.28401,58.55994 0,26.61598 16.33343,49.39196 39.66357,57.40795 2.99524,0.552 4.04826,-1.344 4.04826,-2.904 0,-1.48799 -0.0702,-9.69599 -0.0702,-14.73598 0,0 -16.38024,3.59999 -19.82009,-7.152 0,0 -2.66764,-6.98399 -6.50529,-8.78399 0,0 -5.35868,-3.768 0.37439,-3.696 0,0 5.82669,0.48 9.03254,6.192 5.12468,9.26399 13.71259,6.59999 17.05884,5.01599 0.53821,-3.83999 2.05923,-6.50399 3.74405,-8.08799 -13.08077,-1.488 -26.27858,-3.43199 -26.27858,-26.51997 0,-6.6 1.77844,-9.912 5.52248,-14.13599 -0.6084,-1.56 -2.59743,-7.99199 0.60841,-16.29599 4.89067,-1.56 16.14624,6.48 16.14624,6.48 4.68006,-1.344 9.71114,-2.04 14.69541,-2.04 4.98427,0 10.01534,0.696 14.69541,2.04 0,0 11.25556,-8.064 16.14624,-6.48 3.20584,8.328 1.21681,14.73599 0.6084,16.29599 3.74406,4.24799 6.03729,7.55999 6.03729,14.13599 0,23.15998 -13.7828,25.00797 -26.86359,26.51997 2.15283,1.896 3.97806,5.496 3.97806,11.13599 0,8.08799 -0.0702,18.09599 -0.0702,20.06398 0,1.56 1.07642,3.456 4.04826,2.904 23.40034,-7.96799 39.26577,-30.74397 39.26577,-57.35995 0,-33.28797 -26.32539,-58.55994 -58.78166,-58.55994 z m -34.53889,82.77592 c -0.3042,0.24 -0.234,0.792 0.16381,1.248 0.3744,0.384 0.91261,0.552 1.21681,0.24 0.30421,-0.24 0.23401,-0.792 -0.1638,-1.248 -0.3744,-0.384 -0.91261,-0.552 -1.21682,-0.24 z m -2.52723,-1.944 c -0.1638,0.312 0.0702,0.696 0.53821,0.936 0.3744,0.24 0.84241,0.168 1.00621,-0.168 0.1638,-0.312 -0.0702,-0.696 -0.53821,-0.936 -0.468,-0.144 -0.84241,-0.072 -1.00621,0.168 z m 7.58171,8.544 c -0.37441,0.31199 -0.23401,1.03199 0.3042,1.48799 0.53821,0.552 1.21682,0.624 1.52102,0.24 0.30421,-0.312 0.16381,-1.032 -0.3042,-1.488 -0.51481,-0.55199 -1.21682,-0.62399 -1.52102,-0.23999 z m -2.66764,-3.528 c -0.37441,0.24 -0.37441,0.864 0,1.416 0.3744,0.552 1.00621,0.792 1.31042,0.552 0.3744,-0.312 0.3744,-0.936 0,-1.488 -0.32761,-0.552 -0.93602,-0.792 -1.31042,-0.48 z"
     id="path2"
     inkscape:connector-curvature="0"
     style="stroke-width:0.23698261;fill:#6e5494;fill-opacity:1" />
</svg>
