<?xml version="1.0" encoding="UTF-8" standalone="no"?>
<!-- Generator: Adobe Illustrator 19.0.0, SVG Export Plug-In . SVG Version: 6.00 Build 0)  -->

<svg
   xmlns:dc="http://purl.org/dc/elements/1.1/"
   xmlns:cc="http://creativecommons.org/ns#"
   xmlns:rdf="http://www.w3.org/1999/02/22-rdf-syntax-ns#"
   xmlns:svg="http://www.w3.org/2000/svg"
   xmlns="http://www.w3.org/2000/svg"
   xmlns:sodipodi="http://sodipodi.sourceforge.net/DTD/sodipodi-0.dtd"
   xmlns:inkscape="http://www.inkscape.org/namespaces/inkscape"
   version="1.1"
   id="Layer_1"
   x="0px"
   y="0px"
   viewBox="0 0 128 128"
   xml:space="preserve"
   sodipodi:docname="node-logo.svg"
   width="128"
   height="128"
   inkscape:version="0.92.5 (2060ec1f9f, 2020-04-08)"><metadata
   id="metadata13"><rdf:RDF><cc:Work
       rdf:about=""><dc:format>image/svg+xml</dc:format><dc:type
         rdf:resource="http://purl.org/dc/dcmitype/StillImage" /><dc:title></dc:title></cc:Work></rdf:RDF></metadata><defs
   id="defs11" /><sodipodi:namedview
   pagecolor="#ffffff"
   bordercolor="#666666"
   borderopacity="1"
   objecttolerance="10"
   gridtolerance="10"
   guidetolerance="10"
   inkscape:pageopacity="0"
   inkscape:pageshadow="2"
   inkscape:window-width="1920"
   inkscape:window-height="1055"
   id="namedview9"
   showgrid="false"
   inkscape:zoom="1.6354062"
   inkscape:cx="250"
   inkscape:cy="250"
   inkscape:window-x="1920"
   inkscape:window-y="0"
   inkscape:window-maximized="1"
   inkscape:current-layer="Layer_1" />
<style
   type="text/css"
   id="style2">
	.st0{fill:#539E43;}
</style>
<g
   id="g6"
   transform="matrix(0.39506173,0,0,0.35066091,-34.765432,-23.660845)">
	<path
   class="st0"
   d="m 250,432.5 c -5,0 -9.7,-1.3 -14.1,-3.7 l -44.6,-26.5 c -6.7,-3.7 -3.4,-5 -1.3,-5.7 9.1,-3 10.7,-3.7 20.1,-9.1 1,-0.7 2.3,-0.3 3.4,0.3 l 34.2,20.5 c 1.3,0.7 3,0.7 4,0 l 133.8,-77.5 c 1.3,-0.7 2,-2 2,-3.7 V 172.6 c 0,-1.7 -0.7,-3 -2,-3.7 L 251.7,91.8 c -1.3,-0.7 -3,-0.7 -4,0 l -133.8,77.1 c -1.3,0.7 -2,2.3 -2,3.7 v 154.6 c 0,1.3 0.7,3 2,3.7 l 36.6,21.1 c 19.8,10.1 32.2,-1.7 32.2,-13.4 V 186 c 0,-2 1.7,-4 4,-4 h 17.1 c 2,0 4,1.7 4,4 v 152.6 c 0,26.5 -14.4,41.9 -39.6,41.9 -7.7,0 -13.7,0 -30.8,-8.4 L 102.1,352 C 93.4,347 88,337.6 88,327.5 V 173 c 0,-10.1 5.4,-19.4 14.1,-24.5 L 235.9,71 c 8.4,-4.7 19.8,-4.7 28.2,0 l 133.8,77.5 c 8.7,5 14.1,14.4 14.1,24.5 v 154.6 c 0,10.1 -5.4,19.4 -14.1,24.5 l -133.8,77.5 c -4.4,1.9 -9.4,2.9 -14.1,2.9 z m 41.2,-106.3 c -58.7,0 -70.8,-26.8 -70.8,-49.6 0,-2 1.7,-4 4,-4 H 242 c 2,0 3.7,1.3 3.7,3.4 2.7,17.8 10.4,26.5 45.9,26.5 28.2,0 40.2,-6.4 40.2,-21.5 0,-8.7 -3.4,-15.1 -47.3,-19.4 -36.6,-3.7 -59.4,-11.7 -59.4,-40.9 0,-27.2 22.8,-43.3 61,-43.3 42.9,0 64,14.8 66.7,46.9 0,1 -0.3,2 -1,3 -0.7,0.7 -1.7,1.3 -2.7,1.3 h -17.4 c -1.7,0 -3.4,-1.3 -3.7,-3 -4,-18.4 -14.4,-24.5 -41.9,-24.5 -30.8,0 -34.5,10.7 -34.5,18.8 0,9.7 4.4,12.7 45.9,18.1 41.2,5.4 60.7,13.1 60.7,41.9 -0.2,29.5 -24.4,46.3 -67,46.3 z"
   id="path4"
   inkscape:connector-curvature="0"
   style="fill:#539e43" />
</g>
</svg>