<?xml version="1.0" encoding="UTF-8" standalone="no"?>
<!-- Generator: Adobe Illustrator 19.2.1, SVG Export Plug-In . SVG Version: 6.00 Build 0)  -->

<svg
   xmlns:dc="http://purl.org/dc/elements/1.1/"
   xmlns:cc="http://creativecommons.org/ns#"
   xmlns:rdf="http://www.w3.org/1999/02/22-rdf-syntax-ns#"
   xmlns:svg="http://www.w3.org/2000/svg"
   xmlns="http://www.w3.org/2000/svg"
   xmlns:sodipodi="http://sodipodi.sourceforge.net/DTD/sodipodi-0.dtd"
   xmlns:inkscape="http://www.inkscape.org/namespaces/inkscape"
   version="1.1"
   id="layer"
   x="0px"
   y="0px"
   viewBox="0 0 599.98053 272.89999"
   xml:space="preserve"
   sodipodi:docname="unt-logo.svg"
   width="599.98053"
   height="272.89999"
   inkscape:version="0.92.5 (2060ec1f9f, 2020-04-08)"><metadata
   id="metadata13"><rdf:RDF><cc:Work
       rdf:about=""><dc:format>image/svg+xml</dc:format><dc:type
         rdf:resource="http://purl.org/dc/dcmitype/StillImage" /></cc:Work></rdf:RDF></metadata><defs
   id="defs11" /><sodipodi:namedview
   pagecolor="#ffffff"
   bordercolor="#666666"
   borderopacity="1"
   objecttolerance="10"
   gridtolerance="10"
   guidetolerance="10"
   inkscape:pageopacity="0"
   inkscape:pageshadow="2"
   inkscape:window-width="1920"
   inkscape:window-height="1055"
   id="namedview9"
   showgrid="false"
   inkscape:zoom="1.2541459"
   inkscape:cx="338.30448"
   inkscape:cy="120.69166"
   inkscape:window-x="0"
   inkscape:window-y="0"
   inkscape:window-maximized="1"
   inkscape:current-layer="layer" />
<style
   type="text/css"
   id="style2">
	.st0{fill:#00853E;}
</style>
<path
   class="st0"
   d="m 225.37836,218.3 c -1.9,-1 -5.2,1 -5.2,1 -1,-4.8 -6.2,-11.9 -6.2,-11.9 0,0 11,9.9 11.4,10.9 0,-0.5 3.8,-7.6 -3.3,-14.3 -10.5,-10 -30.5,-28.1 -30.5,-28.1 1.4,4.8 9.5,19.1 5.2,46.2 l 10.5,1.9 1.4,1.9 c 0,0 11.9,1.4 13.8,3.3 0,0 4.3,2.9 -0.5,6.7 0,0 6.7,-1.4 10.5,-5.2 0,0 3.3,-2.9 -0.5,-7.1 l -6.6,-5.3 m -55.7,-63.9 L 20.478358,15.7 c -7.1,-6.7 -4.3,-15.7 -4.3,-15.7 L 4.2783585,26.7 c -3.30000002,8.6 1.4,13.8 5.2,16.7 3.2999995,2.9 118.7000015,96.3 118.7000015,96.3 v 3.8 L 13.778358,55.3 C 8.0783585,51 8.9783585,43.9 8.9783585,43.9 L 0.87835848,61.1 c -3.79999998,9.5 5.70000002,15.7 9.99999952,18.6 3.8,2.9 117.700002,82.5 117.700002,82.5 l 1,4.8 c 0,0 -110.600002,-73.9 -114.900002,-76.3 -4.7999995,-2.9 -4.7999995,-10 -4.7999995,-10 l -8,17 c -3.3,7.1 6.2,11.9 10.4999995,14.8 2.9,1.9 64.8,38.6 115.800002,69.1 H 61.878358 c -9.5,0 -12.9,-2.9 -12.9,-2.9 l 9.1,8.1 c 1.4,1.4 5.7,6.2 11.4,6.2 4.3,0 24.3,0 24.3,0 l 4.8,1.9 -21.4,1.4 c -4.3,0 -5.2,0.5 -11,-2.4 l 9.5,9.1 c 2.9,2.4 4.8,4.3 9.5,4.3 4.8,-0.5 31.500002,-4.8 31.500002,-4.8 l 4.3,1.9 -28.100002,6.2 c -6.2,1.4 -11,-1.9 -11,-1.9 0,0 5.2,5.2 8.6,8.6 3.8,3.3 7.1,5.7 18.600002,2.4 4.8,-1.4 27.2,-8.6 27.2,-8.6 l 14.8,6.2 c 14.8,20.5 33.4,31.5 33.4,31.5 -3.3,4.3 -0.5,9.1 -0.5,9.1 2.9,-6.2 10,-9.5 15.3,-8.6 4.3,0.5 3.3,6.2 3.3,5.7 2.9,-3.3 5.2,-7.6 2.4,-11.4 -3.3,-4.3 -11.9,-0.5 -11.9,-0.5 l -8.6,-15.3 11.4,-6.7 c 5.7,-39.5 -26.2,-66.7 -26.2,-66.7 m -8.1,-57.7 c -1.9,-1.9 -71.000002,-79.6 -71.000002,-79.6 -6.2,-6.7 -3.8,-11.9 -3.8,-12.4 l -8.1,18.1 c -1.9,4.8 1.4,8.1 3.8,11 2.9,2.9 75.300002,78.6 75.300002,78.6 l -0.5,4.3 -68.600002,-68.6 c -5.7,-5.7 -3.8,-10 -3.8,-10.5 l -7.1,16.7 c -1.4,5.2 3.8,8.6 7.1,11.9 3.8,3.8 80.500002,75.3 86.700002,81 13.3,12.4 20,28.1 20,28.1 7.6,-39 -22.4,-69.5 -30,-78.6"
   id="path4"
   inkscape:connector-curvature="0"
   style="fill:#00853e" />
<path
   class="st0"
   d="m 476.57836,25.2 -12.9,35.7 h 19.5 l 5.2,-13.8 h 19.1 v 98.2 h -11 l -8.1,21.9 h 54.8 l 8.1,-21.9 h -15.3 V 47.1 h 22.9 v 13.8 h 13.3 l 13.3,-36.2 -108.9,0.5 m -219.7,0 -8.1,21.9 h 13.8 v 64.3 c 0,11.9 -1.9,18.6 -8.1,24.3 -4.3,4.8 -12.4,7.6 -20,7.6 -9.5,0 -18.1,-3.3 -23.4,-8.6 -5.2,-5.2 -8.1,-14.3 -8.1,-27.2 V 25 h -40 l -8.1,21.9 h 17.1 v 61 c 0,57.7 44.8,62 58.6,62 35.7,0 58.6,-22.9 58.6,-58.6 V 46.7 h 10 l 8.1,-21.9 -50.4,0.4 m 194.5,22 v 120.1 h -16.7 c 0,0 -78.2,-82.5 -83.4,-87.7 v 65.8 h 15.3 l -8.1,22.4 h -50.5 l 8.1,-22.4 h 8.6 V 47.2 h -18.1 l 8.1,-21.9 h 31 c 0,0 59.6,62.4 80.5,84.4 v -62 h -15.3 l 8.1,-22.4 h 51.5 l -8.1,22.4 -11,-0.5 m 141.5,-23.4 v 0 c -4.3,0 -7.1,3.3 -7.1,7.6 0,4.3 3.3,7.6 7.1,7.6 3.8,0 7.1,-3.3 7.1,-7.6 0.1,-4.2 -3.3,-7.6 -7.1,-7.6 z m 0,13.8 c -3.3,0 -5.7,-2.9 -5.7,-6.7 0,-3.3 2.9,-6.2 5.7,-6.2 v 0 c 3.3,0 5.7,2.9 5.7,6.2 0,3.9 -2.4,6.7 -5.7,6.7 z m 1.4,-6.2 v 0 c 1,-0.5 1.4,-1 1.4,-1.9 0,-0.9 -0.5,-1.4 -1,-1.9 -0.5,-0.5 -1.4,-0.5 -2.4,-0.5 h -2.4 v 8.6 h 1.4 v -3.8 h 1 c 1,0 1.4,0.5 1.9,1.4 0.5,0.9 0.5,1.9 0.5,2.4 h 1.4 c 0,0 -0.5,-1 -0.5,-1.9 -0.3,-1.4 -0.8,-1.9 -1.3,-2.4 z m -1.9,-0.4 h -1 v -2.9 h 1 c 1.4,0 1.9,0.5 1.9,1.4 0,0.9 -0.9,1.5 -1.9,1.5 z m -300.7,202.1 c -4.3,0 -8.6,-1.4 -10,-3.8 -1.4,-1.9 -1.4,-3.8 -1.4,-12.4 v -6.2 c 0,-1 -1.4,-1 -1.9,-1 h -0.5 l 0.5,-1.4 v 0 h 4.8 4.3 l -0.5,1.4 c -1,0 -2.4,0 -2.4,1.4 v 11 c 0,3.3 0,8.6 6.7,8.6 4.8,0 7.1,-2.4 7.1,-7.6 v -12.4 c 0,-1 -1.9,-1 -1.9,-1 l 0.5,-1.4 v 0 h 3.3 3.3 l -0.5,1.4 h -0.5 c -0.5,0 -1.4,0 -1.4,1.4 v 11 c 0,1.4 -0.5,5.7 -2.4,8.1 -1.4,1.9 -4.7,2.9 -7.1,2.9 m 37.2,-0.5 c -3.3,-3.8 -5.7,-5.7 -7.1,-7.6 l -2.4,-2.4 -2.4,-2.9 c -2.4,-2.9 -4.3,-4.8 -5.2,-5.7 v 8.6 9.5 h -2.4 -3.4 l 0.5,-1.4 c 1,0 1.9,0 1.9,-1.4 v -1 -5.2 -12.4 c 0,-1 -1,-1 -1.9,-1 l 0.5,-1.4 v 0 h 1.9 1.9 l 7.1,8.1 c 0,0 7.6,8.1 9.5,10 v -14.3 -3.8 0 h 2.9 3.3 v 1.4 c -0.5,0 -2.4,0 -2.4,1 0,0 -0.5,10 -0.5,12.9 v 9.1 h -1.8 v -0.1 m 10,-1.9 v 0 c 1,0 1.9,0 1.9,-1 v -19.5 c 0,-1 -1.4,-1 -2.4,-1 h -0.5 l 0.5,-1.4 v 0 h 3.8 4.3 l -0.5,1.4 c -1,0 -1.4,0 -1.4,1 v 19.5 c 0,0.5 0.5,0.5 1,1 h 1.4 0.5 l -0.5,1.4 v 0 h -3.8 -4.3 v 0 -1.4 m 21.9,1.9 c 0,0 -2.4,-5.7 -5.2,-12.4 -1.9,-3.8 -3.8,-7.6 -4.8,-9.5 l -0.5,-0.5 c -0.5,-1 -1.4,-1 -1.9,-1 h -0.5 l 0.5,-1.4 v 0 h 2.4 2.4 l 7.1,14.8 c 1,2.9 1.4,3.8 1.9,5.2 0,-1 3.3,-8.6 3.3,-8.6 0,0 3.3,-7.1 3.8,-8.6 0.5,-1.4 1,-2.9 1,-2.9 v 0 h 2.4 2.4 l 0.5,1.9 c -0.5,0 -1.4,0 -2.9,2.4 -1,1.4 -3.3,7.1 -3.3,7.1 l -5.7,13.3 h -2.9 m 62.4,0.7 c -3.8,0 -6.7,-0.5 -10.5,-4.3 -4.3,-4.8 -9.1,-10 -9.1,-10.5 v 10.5 3.3 0 h -2.4 -3.8 l 0.5,-1.4 c 1,0 1.4,0 1.9,-0.5 v -0.5 -19.5 c 0,-1 -1.4,-1 -1.9,-1 l 0.5,-1.4 v 0 h 4.3 1.9 3.8 c 2.4,0 6.7,1 6.7,4.3 0,3.8 -3.3,5.7 -6.7,6.7 10,10.5 12.4,11.9 16.7,11.9 h 1 c 1.9,-0.5 5.2,-1.9 5.2,-5.2 0,-1.9 0,-4.3 -5.2,-4.3 -4.3,-0.5 -6.7,-2.4 -6.7,-5.7 0,-1.9 0.5,-3.8 1.9,-5.2 1.9,-1.9 4.3,-2.9 7.1,-2.9 3.8,0 5.2,1.9 5.2,1.9 l -0.5,4.3 h -1.4 l -0.5,-1.9 c 0,-0.5 -1.9,-1.4 -4.3,-1.4 -2.9,0 -4.3,1.4 -4.3,3.8 0,2.4 1.9,3.8 5.7,4.3 4.3,0.5 6.2,2.4 6.2,5.7 0.2,4.7 -5.6,9 -11.3,9 m -19.5,-22.9 v 8.1 c 4.3,-0.5 6.7,-1.9 6.7,-5.2 0,-2.9 -2.9,-3.3 -4.8,-3.3 -1.4,-0.1 -1.4,0.4 -1.9,0.4 m 35.7,20.9 v 0 c 1,0 1.9,0 1.9,-1 v -19.4 c 0,-1 -1,-1 -1.9,-1 h -0.5 l 0.5,-1.4 v 0 h 3.8 4.3 l -0.5,1.4 c -1,0 -1.9,0 -1.9,1 v 19.5 c 0,0.5 0.5,0.5 0.5,1 h 1.4 0.5 l -0.5,1.4 v 0 h -3.8 -4.3 v 0 l 0.5,-1.5 m 40.5,1.5 h -4.3 l 0.5,-1.4 c 0,0 1.9,0 1.9,-1 v -6.7 c 0,-1.4 -1,-2.4 -2.4,-4.8 -0.5,-1 -1,-1.4 -1.9,-2.4 -3.8,-5.7 -4.3,-5.7 -6.7,-5.7 h -5.2 v 19.5 c 0,0.5 0.5,0.5 0.5,1 h 1.4 0.5 l -0.5,1.4 v 0 h -3.8 -4.3 l 0.5,-1.4 h 1 c 0.5,0 1.4,0 1.4,-1 v -20 0 h -2.9 -3.3 c -1.4,0 -1.9,1.9 -1.9,1.9 l -1,-0.5 1.4,-3.8 h 9.5 9.5 c 3.8,0 4.3,1.4 6.7,4.8 0.5,0.5 1,1.4 1.4,2.4 1,1.4 1.4,2.4 1.9,3.3 l 1,1.9 c 0.5,-1 3.3,-5.7 5.2,-8.6 1,-1.4 1.9,-2.9 1.9,-2.9 0.5,-0.5 0.5,-1 0.5,-1 v 0 h 1.4 2.9 v 0 0.5 c -0.5,0 -1.9,1 -2.9,2.4 -0.5,0.5 -0.5,1 -1,1.4 -2.4,2.9 -7.1,9.5 -7.1,11.9 v 6.2 c 0,0.5 0.5,0.5 0.5,1 h 1.4 0.5 l -0.5,1.4 h -3.7 m -90,0.2 h -8.6 -2.4 -1.4 -0.5 l 0.5,-1.4 c 0,0 1.9,0 1.9,-1.9 v -2.4 -8.6 -6.7 -1.4 c 0,-1 -1,-1 -1.4,-1 h -0.5 l 0.5,-1.4 v 0 h 3.3 8.6 c 1.9,0 2.9,0.5 2.9,0.5 v 2.4 1 l -1.4,1 c 0,-1.4 -0.5,-2.4 -3.8,-2.4 h -3.8 v 1.9 6.2 h 0.5 3.8 4.3 l -1,2.9 v 0 h -3.3 -3.3 -1 v 4.8 4.3 h 1 3.3 3.8 v -3.3 l 1.9,1.4 v 2.9 1.4 h -0.5 l -3.4,-0.2 m -151.6,37.6 c -7.1,0 -11.9,-4.8 -11.9,-11.9 0,-5.2 2.4,-9.5 6.7,-11.4 2.4,-1 4.8,-1.4 7.1,-1.4 7.1,0 11.4,4.3 11.4,11 1,7.5 -5.2,13.7 -13.3,13.7 m 1,-22.8 c -3.8,0 -6.7,1.9 -8.1,4.8 -0.5,1.4 -1,3.3 -1,5.2 0,4.3 1.4,7.1 4.3,9.1 1.4,1 3.3,1.4 5.2,1.4 5.2,0 9.1,-4.3 9.1,-10.5 0,-4.3 -1.4,-7.1 -4.8,-8.6 -0.9,-1 -2.8,-1.4 -4.7,-1.4 m 17.6,20.4 c 1,0 1.9,-0.5 1.9,-1.9 v -19.1 c 0,-1 -1.4,-1 -1.9,-1 h -0.5 l 0.5,-1.4 v 0 h 3.8 8.6 c 1.9,0 2.9,0.5 2.9,0.5 v 2.4 1 l -1.4,1 c 0,-1 -0.5,-2.4 -3.8,-2.4 h -3.8 v 1.9 6.2 h 8.6 l -1,2.4 h -7.6 v 9.5 c 0,0.5 0.5,0.5 0.5,1 h 1.4 0.5 l -0.5,1.4 v 0 h -3.8 -4.8 v 0 l 0.4,-1.5 m 52.4,1.5 c -3.3,-3.8 -5.2,-5.7 -7.1,-7.6 l -2.4,-2.4 -1.9,-1.9 c -2.9,-2.9 -4.8,-5.2 -5.7,-6.2 v 8.6 9.5 h -0.5 -1.9 -3.3 l 0.5,-1.4 c 1,0 1.9,0 1.9,-1.4 v -1 -5.2 -12.4 c 0,-1 -1,-1 -2.9,-1 h -0.5 l 0.5,-1.4 v 0 h 2.9 1.9 l 7.1,8.1 c 0,0 7.6,8.1 9.5,10 v -14.3 -3.8 0 h 2.9 2.9 l -0.5,1.4 c -0.5,0 -1.9,0 -1.9,1 0,0 -0.5,10 -0.5,12.9 v 9.1 h -1 v -0.6 m 60.1,2.4 c -1,-0.5 -2.4,-1.9 -3.8,-3.8 -0.5,-1 -1.4,-1.4 -1.9,-2.4 -4.8,-5.2 -9.1,-10 -9.1,-10.5 v 10.5 3.3 0 h -2.4 -3.8 l 0.5,-1.4 c 1,0 1.4,0 1.9,-0.5 v -0.5 l 0.5,-11.4 c 0,-2.9 0,-5.2 -0.5,-6.7 v -1 c 0,-1 -1.4,-1 -1.9,-1 l 0.5,-1.4 v 0 h 4.3 1.9 3.3 c 2.4,0 6.7,1 6.7,4.3 0,3.8 -2.9,5.2 -5.7,6.2 -0.5,0 -1,0.5 -1,0.5 0.5,0.5 3.3,2.9 5.7,5.7 2.4,2.4 4.8,5.2 7.1,7.1 1.4,1.4 1.9,1.9 3.3,2.9 v 0 h -5.6 m -13.4,-24.7 h -1.4 v 8.1 c 0.5,0 2.4,0 3.8,-1 1.9,-1 2.9,-2.4 2.9,-4.3 -0.5,-1.9 -1.9,-2.8 -5.3,-2.8 m -26.7,22.9 c -7.1,0 -11.9,-4.8 -11.9,-11.9 0,-5.7 2.4,-9.5 6.7,-11.9 2.4,-1 4.8,-1.4 7.1,-1.4 7.1,0 11.9,4.3 11.9,11 0.5,8.4 -5.7,14.2 -13.8,14.2 m 1,-22.9 c -3.8,0 -6.7,1.9 -8.1,4.8 -0.5,1.4 -1,3.3 -1,5.2 0,4.3 1.4,7.1 4.3,9.1 1.4,1 3.3,1.4 5.2,1.4 5.2,0 9.1,-4.3 9.1,-10.5 0,-3.8 -1.4,-6.7 -4.8,-8.6 -1.4,-0.9 -2.8,-1.4 -4.7,-1.4 m 45.7,20.9 c 0.5,0 1.4,0 1.4,-1 v -11.4 -8.1 h -2.9 -3.3 c -1.4,0 -1.9,1.9 -1.9,1.9 l -1,-0.5 1.4,-3.8 h 9.5 10.5 l -0.5,3.8 h -1 c 0,0 0,-1 -0.5,-1.4 -0.5,-0.5 -0.5,-0.5 -1,-0.5 h -5.2 v 1 7.1 9.5 2.4 c 0,0.5 0.5,0.5 1,1 h 1.4 0.5 l -0.5,1.4 v 0 h -3.8 -3.8 v 0 l -0.3,-1.4 m 35.3,0 v 0 c 1,0 1.9,0 1.9,-1 v -9.1 h -0.5 -6.7 -6.7 v 9.1 c 0,0.5 0.5,0.5 1,1 h 1.4 0.5 l -0.5,1.4 v 0 h -3.8 -4.3 l 0.5,-1.4 h 0.5 c 0.5,0 1.4,0 1.4,-1 l 0.5,-11.4 -1.4,-8.1 c 0,-1 -1,-1 -1.9,-1 h -0.5 l 0.5,-1.4 v 0 h 3.8 4.3 l -0.5,1.4 c -1,0 -1.9,0 -1.9,1 v 7.6 h 1 6.2 7.1 v -7.6 c 0,-1 -1,-1 -1.9,-1 h -0.5 l 0.5,-1.4 v 0 h 3.8 4.3 l -0.5,1.4 c -1,0 -1.9,0 -1.9,1 v 1 c 0,1.4 -0.5,3.8 -0.5,6.7 0,3.3 0,7.6 0.5,10 v 1.9 c 0,1 1.4,1 1.9,1 h 0.5 l -0.5,1.4 v 0 h -3.8 -4.3 v 0 l 0.5,-1.5 m 60.5,3.4 c 0,0 1.4,-1 2.9,-2.4 1.4,-1.4 6.7,-7.6 8.6,-10.5 l 1,-1 c -0.5,-0.5 -0.5,-1 -1,-1 -0.5,-0.5 -1,-1.4 -1.4,-1.9 -0.5,-1 -1.4,-1.9 -1.9,-3.3 -2.9,-4.3 -3.3,-4.8 -5.7,-4.8 l 0.5,-1.4 h 2.4 2.9 c 0,0 3.8,5.7 5.7,8.6 l 1,1 c 0,0 0.5,-0.5 0.5,-1 1,-1.4 1.9,-2.9 3.3,-4.3 1.4,-1.4 2.4,-3.3 2.9,-3.3 0.5,-0.5 0.5,-1 0.5,-1 v 0 h 1.9 2.4 c 0,0 -1.4,1 -2.4,2.4 l -1.9,2.4 c -1.4,1.9 -3.8,4.8 -5.2,6.7 l -0.5,0.5 v 0.5 c 0,0.5 0.5,0.5 0.5,0.5 1,1.4 4.3,6.7 6.2,9.1 0.5,0.5 0.5,1 0.5,1 l 0.5,-0.5 4.3,-9.1 5.7,-13.3 h 2.9 c 0,0 1.4,3.3 4.3,9.5 3.3,7.1 4.8,9.5 6.2,12.9 0.5,0.5 1,1 2.4,1 l 0.5,-4.8 h 1.9 l 0.5,1.9 c 0,0.5 1.9,1.4 4.3,1.4 1.4,0 2.9,-0.5 3.8,-1.4 0.5,-1 1,-1.4 1,-2.9 0,-2.4 -1.9,-3.8 -6.2,-4.3 -4.3,-0.5 -6.7,-2.4 -6.7,-5.7 0,-1.4 0.5,-3.3 1.4,-4.3 1.9,-2.4 4.8,-3.8 8.1,-3.8 1,0 2.4,0 3.3,0.5 1.4,0.5 1.9,1 1.9,1.4 l -0.5,4.8 h -1.9 l -0.5,-1.9 c 0,-0.5 -1.9,-1.4 -4.3,-1.4 -2.9,0 -4.3,1.4 -4.8,3.8 0,2.9 1.9,4.3 6.2,4.8 4.3,0.5 6.7,2.4 6.7,5.7 0,1.4 -0.5,3.3 -1.4,4.3 -1.9,2.4 -4.8,3.8 -8.1,3.8 -1,0 -2.4,0 -3.3,-0.5 h -1 v 0.5 0 h -3.8 -2.4 l -4.3,-9.1 h -0.5 -4.8 -4.3 l -1,1.9 c -1,1.9 -1.4,3.3 -1.9,4.3 v 1 c 0.5,0.5 1.4,0.5 1.9,0.5 l -0.5,1.4 v 0 h -5.7 -3.3 c -1.4,-1.9 -3.3,-5.2 -4.8,-7.1 l -1,-1.4 -0.5,-0.5 -0.5,0.5 -2.9,3.3 c -2.4,2.9 -4.8,6.2 -5.2,6.7 l -0.5,1 -4.9,-1.7 v 0 m 31.5,-13.4 h 3.3 3.8 l -1.4,-3.3 -1,-2.9 c -0.5,-1 -1,-1.9 -1,-2.4 -0.4,1.5 -3.2,8.6 -3.7,8.6 v 0 m -63.4,10 c 0.5,0 1.4,0 1.4,-1 v -11.4 -8.1 h -2.9 -3.3 c -1.4,0 -1.9,1.9 -1.9,1.9 l -1,-0.5 1.4,-3.8 h 9.5 10.5 l -0.5,3.8 h -1 c 0,0 0,-1 -0.5,-1.4 -0.5,-0.5 -0.5,-0.5 -1,-0.5 h -5.2 v 1 7.1 9.5 1.9 c 0,0.5 0.5,0.5 1,1 h 1.4 -0.5 l -0.5,1.4 v 0 h -3.8 -3.8 v 0 l 0.7,-0.9 m 30.5,2 h -2.9 -7.1 -4.3 l 0.5,-1.4 c 0,0 0.5,0 1,-0.5 0.5,-0.5 1,-1 1,-1.4 v -2.4 -8.6 -6.2 -1.4 c 0,-1 -1.4,-1 -1.9,-1 h -0.5 l 0.5,-1.4 v 0 h 3.8 8.6 c 1.9,0 2.9,0.5 2.9,0.5 v 2.4 1 l -1.4,1 c 0,-1.4 -0.5,-2.4 -3.8,-2.4 h -3.8 v 1.9 6.2 h 0.5 3.3 5.2 l -1,2.9 h -0.5 -3.8 -3.3 -0.5 v 4.3 0.5 4.3 h 0.5 3.8 3.3 v -3.3 l 1.9,1.4 v 2.9 1.4 0 0 l -2,-0.7"
   id="path6"
   inkscape:connector-curvature="0"
   style="fill:#00853e"
   sodipodi:nodetypes="ccccccccccccccccccccscsssccccssscccccccccccccccccccccccccccssccssccssccsssccccssccccsccsssccsssccccccsssssccccccssscccccsccccccsccsccccccccccccccscccccsssccccccsscccccccccccccscccccccccccccccccccccccccccccscccccsscscscsssccccsscccccsccccsssccccccssccccccccccccssccscsccccccccsscccsccccsccccccccccccccsscccccccccccscccssccccsccccscccccccccccccccccccccccscsccccscsscccsssccccsccccsccccccsccccccccccscscccccccsccssccccccccccccccscccccccccccccccccscccccssccccccccccccccscsccccscsscccscccsccccccccsccccscccccccccccsccccsccccccccscccsccccccsccccssccccccssscsscccccccccccccccccccccscccccccccscccccccccccccscssscscccccscsscsccccccccccscccccccccccccccccccccccccscccsccccccccsccccsccccccccccccccsscccssccccsccccscccccccccccccccccccccccc" />
</svg>